# xmcd CD database file
#
# Track frame offsets:
#	150
#	18212
#	44004
#	67667
#	90652
#	115614
#	136565
#	159230
#
# Disc length: 2383 seconds
#
# Revision: 0
# Processed by: cddbd v1.5.2PL0 Copyright (c) Steve Scherf et al.
# Submitted via: NeoAudio 9.9.9
#
DISCID=51094d08
DTITLE=Tito Rodriguez - Curious?
DYEAR=2006
DGENRE=Salsa
TTITLE0=Borinquen Tu Hijo Te Canta
TTITLE1=Cantando Voy
TTITLE2=Oye Mi Son
TTITLE3=Cancel
TTITLE4=Sabor Criollo
TTITLE5=Ya No Llores
TTITLE6=Santerita
TTITLE7=Se Comienza Por El Uno
EXTD=YEAR: 2006
EXTT0=
EXTT1=
EXTT2=
EXTT3=
EXTT4=
EXTT5=
EXTT6=
EXTT7=
PLAYORDER=
